<svg xmlns="http://www.w3.org/2000/svg" viewBox="0 0 283.63 53.13"><defs><style>.cls-1{stroke:#000;stroke-miterlimit:10;stroke-width:0.75px;}</style></defs><g id="Layer_2" data-name="Layer 2"><g id="Layer_1-2" data-name="Layer 1"><path d="M106.46,10.21h3.74L114.54,16h2.95L112.8,9.79a4.59,4.59,0,0,0,3.8-4.56c0-2.85-2.31-4.77-5.75-4.77h-6.78V16h2.39Zm0-7.51h4.26c2.21,0,3.47.95,3.47,2.59S112.82,8,110.7,8h-4.24Z"/><polygon points="133.25 13.75 124.03 13.75 124.03 9.26 132.19 9.26 132.19 7.04 124.03 7.04 124.03 2.68 133.15 2.68 133.15 0.46 121.64 0.46 121.64 15.97 133.25 15.97 133.25 13.75"/><path d="M140.88,12.05h7.67L150.3,16h2.59L145.76.35h-2L136.6,16h2.5Zm3.85-8.55,2.85,6.36h-5.73Z"/><polygon points="167.87 13.73 159.46 13.73 159.46 0.46 157.07 0.46 157.07 15.97 167.87 15.97 167.87 13.73"/><path d="M106.46,29.19h3.28c3.72,0,6.22-2.09,6.22-5.21s-2.33-5.07-5.94-5.07h-6V34.42h2.39Zm0-8h3.43c2.33,0,3.66,1.06,3.66,2.89S112.08,27,109.8,27h-3.34Z"/><path d="M130.93,34.42h2.95l-4.68-6.18a4.58,4.58,0,0,0,3.8-4.56c0-2.85-2.32-4.77-5.76-4.77h-6.77V34.42h2.39V28.67h3.74Zm-8.07-13.27h4.26c2.2,0,3.47,1,3.47,2.6s-1.37,2.72-3.5,2.72h-4.23Z"/><path d="M153.32,26.64a7.79,7.79,0,0,0-7.95-8,7.92,7.92,0,0,0-8,8,7.8,7.8,0,0,0,7.95,8A7.93,7.93,0,0,0,153.32,26.64Zm-13.49,0a5.52,5.52,0,1,1,11,.05,5.52,5.52,0,1,1-11-.05Z"/><path d="M170.2,24c0-3.08-2.33-5.07-5.94-5.07h-5.95V34.42h2.39V29.19H164C167.7,29.19,170.2,27.1,170.2,24Zm-9.5-2.83h3.43c2.33,0,3.66,1.06,3.66,2.89S166.32,27,164,27H160.7Z"/><polygon points="186.32 32.2 177.09 32.2 177.09 27.71 185.25 27.71 185.25 25.49 177.09 25.49 177.09 21.13 186.21 21.13 186.21 18.91 174.71 18.91 174.71 34.42 186.32 34.42 186.32 32.2"/><path d="M204.56,34.42l-4.69-6.18a4.58,4.58,0,0,0,3.8-4.56c0-2.85-2.31-4.77-5.75-4.77h-6.78V34.42h2.39V28.67h3.74l4.34,5.75Zm-11-8V21.15h4.26c2.21,0,3.47,1,3.47,2.6s-1.37,2.72-3.49,2.72Z"/><polygon points="207.49 21.15 212.51 21.15 212.51 34.42 214.92 34.42 214.92 21.15 219.94 21.15 219.94 18.91 207.49 18.91 207.49 21.15"/><polygon points="229.2 34.42 231.61 34.42 231.61 28.3 238.14 18.91 235.32 18.91 230.43 26.05 225.58 18.91 222.67 18.91 229.2 28.32 229.2 34.42"/><polygon points="111.58 45.17 106.32 37.36 104.07 37.36 104.07 52.87 106.42 52.87 106.42 41.68 111.33 48.81 111.78 48.81 116.69 41.66 116.69 52.87 119.08 52.87 119.08 37.36 116.83 37.36 111.58 45.17"/><path d="M130.39,37.26l-7.13,15.61h2.5L127.53,49h7.68L137,52.87h2.59l-7.13-15.61Zm-1.88,9.5,2.87-6.35,2.86,6.35Z"/><polygon points="154.73 48.58 145.84 37.36 143.73 37.36 143.73 52.87 146.08 52.87 146.08 41.38 155.21 52.87 157.07 52.87 157.07 37.36 154.73 37.36 154.73 48.58"/><path d="M168.38,37.26l-7.12,15.61h2.5L165.53,49h7.68L175,52.87h2.59l-7.13-15.61Zm-1.87,9.5,2.87-6.35,2.85,6.35Z"/><path d="M187.62,46.46h4.55v3.17a6.8,6.8,0,0,1-4,1.3c-3.33,0-5.57-2.34-5.57-5.83A5.49,5.49,0,0,1,188,39.35,6,6,0,0,1,192.29,41l.27.23,1.54-1.8-.27-.23a8.22,8.22,0,0,0-5.79-2,7.86,7.86,0,0,0-7.85,8,7.63,7.63,0,0,0,7.95,8,9.38,9.38,0,0,0,6.23-2.36l.12-.1V44.26h-6.87Z"/><polygon points="223.66 45.17 218.4 37.36 216.16 37.36 216.16 52.87 218.5 52.87 218.5 41.68 223.41 48.81 223.87 48.81 228.77 41.66 228.77 52.87 231.16 52.87 231.16 37.36 228.91 37.36 223.66 45.17"/><polygon points="239.21 46.16 247.36 46.16 247.36 43.95 239.21 43.95 239.21 39.58 248.32 39.58 248.32 37.36 236.82 37.36 236.82 52.87 248.43 52.87 248.43 50.65 239.21 50.65 239.21 46.16"/><polygon points="264.25 48.58 255.35 37.36 253.25 37.36 253.25 52.87 255.6 52.87 255.6 41.38 264.73 52.87 266.59 52.87 266.59 37.36 264.25 37.36 264.25 48.58"/><polygon points="271.18 37.36 271.18 39.6 276.2 39.6 276.2 52.87 278.61 52.87 278.61 39.6 283.63 39.6 283.63 37.36 271.18 37.36"/><polygon class="cls-1" points="47.3 0.38 40.43 0.38 24.51 21.77 8.45 0.38 1.5 0.38 20.85 26.03 0.75 52.73 7.55 52.73 24.29 30.22 41.02 52.73 48.05 52.73 27.95 25.95 47.3 0.38"/><polygon class="cls-1" points="64.78 0.38 58.88 0.38 58.88 52.73 94.22 52.73 94.22 47.27 64.78 47.27 64.78 0.38"/><polygon points="201.86 46.16 210.01 46.16 210.01 43.95 201.86 43.95 201.86 39.58 210.97 39.58 210.97 37.36 199.47 37.36 199.47 52.87 211.08 52.87 211.08 50.65 201.86 50.65 201.86 46.16"/></g></g></svg>